<svg xmlns="http://www.w3.org/2000/svg" style="display:none">
    <!-- Font Awesome Free 6.5.2 - https://fontawesome.com License - CC BY 4.0 -->
    <symbol id="icon-email" viewBox="0 0 512 512">
        <path d="M48 64C21.5 64 0 85.5 0 112c0 15.1 7.1 29.3 19.2 38.4L236.8 313.6c11.4 8.5 27 8.5 38.4 0L492.8 150.4c12.1-9.1 19.2-23.3 19.2-38.4c0-26.5-21.5-48-48-48H48zM0 176V384c0 35.3 28.7 64 64 64H448c35.3 0 64-28.7 64-64V176L294.4 339.2c-22.8 17.1-54 17.1-76.8 0L0 176z"/>
    </symbol>
    <symbol id="icon-github" viewBox="0 0 496 512">
        <path d="M165.9 397.4c0 2-2.3 3.6-5.2 3.6-3.3.3-5.6-1.3-5.6-3.6 0-2 2.3-3.6 5.2-3.6 3-.3 5.6 1.3 5.6 3.6zm-31.1-4.5c-.7 2 1.3 4.3 4.3 4.9 2.6 1 5.6 0 6.2-2s-1.3-4.3-4.3-5.2c-2.6-.7-5.5.3-6.2 2.3zm44.2-1.7c-2.9.7-4.9 2.6-4.6 4.9.3 2 2.9 3.3 5.9 2.6 2.9-.7 4.9-2.6 4.6-4.6-.3-1.9-3-3.2-5.9-2.9zM244.8 8C106.1 8 0 113.3 0 252c0 110.9 69.8 205.8 169.5 239.2 12.8 2.3 17.3-5.6 17.3-12.1 0-6.2-.3-40.4-.3-61.4 0 0-70 15-84.7-29.8 0 0-11.4-29.1-27.8-36.6 0 0-22.9-15.7 1.6-15.4 0 0 24.9 2 38.6 25.8 21.9 38.6 58.6 27.5 72.9 20.9 2.3-16 8.8-27.1 16-33.7-55.9-6.2-112.3-14.3-112.3-110.5 0-27.5 7.6-41.3 23.6-58.9-2.6-6.5-11.1-33.3 2.6-67.9 20.9-6.5 69 27 69 27 20-5.6 41.5-8.5 62.8-8.5s42.8 2.9 62.8 8.5c0 0 48.1-33.6 69-27 13.7 34.7 5.2 61.4 2.6 67.9 16 17.7 25.8 31.5 25.8 58.9 0 96.5-58.9 104.2-114.8 110.5 9.2 7.9 17 22.9 17 46.4 0 33.7-.3 75.4-.3 83.6 0 6.5 4.6 14.4 17.3 12.1C428.2 457.8 496 362.9 496 252 496 113.3 383.5 8 244.8 8zM97.2 352.9c-1.3 1-1 3.3.7 5.2 1.6 1.6 3.9 2.3 5.2 1 1.3-1 1-3.3-.7-5.2-1.6-1.6-3.9-2.3-5.2-1zm-10.8-8.1c-.7 1.3.3 2.9 2.3 3.9 1.6 1 3.6.7 4.3-.7.7-1.3-.3-2.9-2.3-3.9-2-.6-3.6-.3-4.3.7zm32.4 35.6c-1.6 1.3-1 4.3 1.3 6.2 2.3 2.3 5.2 2.6 6.5 1 1.3-1.3.7-4.3-1.3-6.2-2.2-2.3-5.2-2.6-6.5-1zm-11.4-14.7c-1.6 1-1.6 3.6 0 5.9 1.6 2.3 4.3 3.3 5.6 2.3 1.6-1.3 1.6-3.9 0-6.2-1.4-2.3-4-3.3-5.6-2z"/>
    </symbol>
    <symbol id="icon-linkedin" viewBox="0 0 448 512">
        <path d="M416 32H31.9C14.3 32 0 46.5 0 64.3v383.4C0 465.5 14.3 480 31.9 480H416c17.6 0 32-14.5 32-32.3V64.3c0-17.8-14.4-32.3-32-32.3zM135.4 416H69V202.2h66.5V416zm-33.2-243c-21.3 0-38.5-17.3-38.5-38.5S80.9 96 102.2 96c21.2 0 38.5 17.3 38.5 38.5 0 21.3-17.2 38.5-38.5 38.5zm282.1 243h-66.4V312c0-24.8-.5-56.7-34.5-56.7-34.6 0-39.9 27-39.9 54.9V416h-66.4V202.2h63.7v29.2h.9c8.9-16.8 30.6-34.5 62.9-34.5 67.2 0 79.7 44.3 79.7 101.9V416z"/>
    </symbol>
    <symbol id="icon-twitter" viewBox="0 0 512 512">
        <path d="M389.2 48h70.6L305.6 224.2 487 464H345L233.7 318.6 106.5 464H35.8L200.7 275.5 26.8 48H172.4L272.9 180.9 389.2 48zM364.4 421.8h39.1L151.1 88h-42L364.4 421.8z"/>
    </symbol>
    <symbol id="icon-paper" viewBox="0 0 384 512">
        <path d="M64 0C28.7 0 0 28.7 0 64V448c0 35.3 28.7 64 64 64H320c35.3 0 64-28.7 64-64V160H256c-17.7 0-32-14.3-32-32V0H64zM256 0V128H384L256 0zM112 256H272c8.8 0 16 7.2 16 16s-7.2 16-16 16H112c-8.8 0-16-7.2-16-16s7.2-16 16-16zm0 64H272c8.8 0 16 7.2 16 16s-7.2 16-16 16H112c-8.8 0-16-7.2-16-16s7.2-16 16-16zm0 64H272c8.8 0 16 7.2 16 16s-7.2 16-16 16H112c-8.8 0-16-7.2-16-16s7.2-16 16-16z"/>
    </symbol>
    <!-- Academicons - https://jpswalsh.github.io/academicons/ -->
    <symbol id="icon-scholar" viewBox="0 0 384 512">
        <g transform="translate(0, 448) scale(1, -1)">
            <path d="M343.759 341.338c7.339-0.942 6.562-5.354 6.562-10.631v-128.667c0-5.959-4.875-10.834-10.834-10.834h-3.988c-5.959 0-10.834 4.876-10.834 10.834v128.667c0 5.289-0.77 9.706 6.624 10.636v17.118l-56.907-46.672c0.657-1.219 1.281-2 1.875-3.022c5-8.853 7.548-19.861 7.548-33.314c0-10.311-1.719-19.578-5.204-27.757c-3.469-8.181-7.688-14.861-12.609-20.008c-4.921-5.166-9.859-9.884-14.797-14.134c-4.936-4.258-9.155-8.696-12.609-13.306c-3.481-4.594-5.216-9.344-5.216-14.266c0-4.93 2.25-9.938 6.734-14.983c4.469-5.063 9.968-9.968 16.469-14.814c6.516-4.813 13.015-10.155 19.516-15.968c6.515-5.803 11.983-13.272 16.452-22.344c4.501-9.103 6.75-19.125 6.75-30.141c0-14.531-3.704-27.656-11.094-39.336c-7.407-11.632-17.063-20.914-28.922-27.719c-11.892-6.852-24.609-12.008-38.172-15.492c-13.593-3.453-27.078-5.188-40.547-5.188c-8.501 0-17.078 0.656-25.706 1.998c-8.654 1.345-17.326 3.72-26.061 7.063c-8.75 3.367-16.501 7.5-23.219 12.469c-6.734 4.913-12.156 11.258-16.313 18.983c-4.157 7.727-6.219 16.414-6.219 26.063c0 11.446 3.187 22.063 9.577 31.962c6.391 9.827 14.859 18.032 25.391 24.531c18.376 11.43 47.203 18.492 86.437 21.163c-8.968 11.211-13.467 21.767-13.467 31.642c0 5.619 1.468 11.642 4.375 18.143c-4.688-0.656-9.516-1.024-14.439-1.024c-21.075 0-38.874 6.851-53.327 20.648c-14.452 13.774-21.672 31.017-21.672 51.861c0 2.179 0.064 4.101 0.22 6.226h-85.656l129.157 112.273h213.89l-19.765-15.431v-27.231zM236.398 118.858c-1.125 0.789-4.047 2.922-8.751 6.385c-4.702 3.493-7.28 5.344-7.734 5.563c-2.469 0.445-5.936 0.696-10.404 0.696c-9.642 0-19.127-0.853-28.439-2.555c-9.313-1.656-18.5-4.452-27.562-8.398c-9.095-3.924-16.44-9.689-22.032-17.315c-5.626-7.616-8.423-16.586-8.423-26.905c0-9.836 2.469-18.61 7.406-26.25c4.924-7.594 11.423-13.539 19.501-17.797c8.079-4.266 16.547-7.485 25.391-9.602c8.859-2.103 17.875-3.195 27.063-3.195c18.171 0 33.813 4.093 46.938 12.273c13.093 8.18 19.656 20.812 19.656 37.859c0 3.586-0.499 7.117-1.485 10.562c-1.03 3.485-2.046 6.469-3.046 8.946c-1 2.43-2.906 5.359-5.719 8.733c-2.797 3.383-4.938 5.884-6.376 7.548c-1.469 1.719-4.216 4.171-8.266 7.414c-4.015 3.258-6.577 5.288-7.719 6.038zM233.04 219.437c7.374 8.845 11.076 20.008 11.076 33.455c0 11.454-1.951 23.444-5.873 35.983c-3.907 12.555-10.423 23.883-19.517 33.968c-9.063 10.119-19.563 15.157-31.438 15.157c-13.439 0-23.751-4.835-30.938-14.485c-7.186-9.624-10.781-21.281-10.781-34.976c0-11.664 1.969-23.539 5.906-35.648c3.921-12.104 10.344-22.908 19.344-32.431c8.968-9.548 19.406-14.313 31.266-14.313c13.219 0 23.547 4.429 30.953 13.288z"/>
        </g>
    </symbol>
</svg>
